PathFileType	3	(X/Y/Z)	squats_1__view2_aligned.trc
DataRate	CameraRate	NumFrames	NumMarkers	Units	OrigDataRate	OrigDataStartFrame	OrigNumFrames
100.0	100.0	7	19	mm	100.0	1575	1660
Frame#	Time	pelvis			neck			head			hip_left			hip_right			knee_left			knee_right			ankle_left			ankle_right			heel_left			heel_right			toe_left			toe_right			shoulder_left			shoulder_right			elbow_left			elbow_right			wrist_left			wrist_right			
		X1	Y1	Z1	X2	Y2	Z2	X3	Y3	Z3	X4	Y4	Z4	X5	Y5	Z5	X6	Y6	Z6	X7	Y7	Z7	X8	Y8	Z8	X9	Y9	Z9	X10	Y10	Z10	X11	Y11	Z11	X12	Y12	Z12	X13	Y13	Z13	X14	Y14	Z14	X15	Y15	Z15	X16	Y16	Z16	X17	Y17	Z17	X18	Y18	Z18	X19	Y19	Z19	
1575	15.74000	-1.394275	427.788372	111.738103	17.055693	865.865778	-171.864898	13.304404	960.412963	-311.218794	-75.476342	431.459866	110.839965	72.687980	424.116880	112.636252	-188.520447	368.224253	-254.328554	180.435500	117.823378	-90.123119	-168.403885	142.265602	44.722816	168.258692	-199.994968	101.119439	-166.417290	117.117038	96.045460	160.418304	-232.126271	146.917750	-168.233991	55.128701	-101.202508	211.253138	-304.660665	-44.587696	-156.818189	838.718674	-128.008722	193.885970	816.183363	-150.340375	-277.071217	590.115595	-121.215555	298.661015	561.309733	-175.289103	-216.801672	459.203482	-312.537672	219.871281	424.760590	-354.009214
1576	15.75000	-1.527659	423.379856	111.553705	17.298334	861.367080	-171.689561	13.733128	956.000165	-310.952088	-75.665416	427.104219	110.556908	72.610262	419.655493	112.550511	-188.377214	366.813129	-254.814273	181.622954	114.343696	-90.135253	-167.600887	141.765609	44.810151	169.184508	-203.007081	101.793217	-165.586169	116.638250	96.137815	161.340486	-235.207214	147.581733	-166.969704	54.961020	-101.185270	212.746871	-307.154336	-44.036316	-156.814903	834.317588	-128.279813	194.275305	811.695257	-150.126881	-277.524813	585.713360	-122.239324	299.295757	556.900662	-176.120593	-216.185276	455.506328	-313.768364	219.893597	421.116585	-355.289068
1577	15.76000	-1.661043	418.971339	111.369307	17.540975	856.868382	-171.514225	14.161852	951.587367	-310.685383	-75.854490	422.748573	110.273850	72.532544	415.194106	112.464769	-188.233981	365.402004	-255.299991	182.810408	110.864013	-90.147388	-166.797888	141.265615	44.897485	170.110324	-206.019193	102.466995	-164.755048	116.159462	96.230169	162.262668	-238.288158	148.245715	-165.705417	54.793340	-101.168032	214.240604	-309.648007	-43.484936	-156.811617	829.916502	-128.550904	194.664639	807.207151	-149.913388	-277.978409	581.311125	-123.263093	299.930498	552.491590	-176.952084	-215.568880	451.809174	-314.999056	219.915913	417.472580	-356.568923
1578	15.77000	-1.794428	414.562823	111.184909	17.783616	852.369685	-171.338888	14.590576	947.174570	-310.418678	-76.043564	418.392926	109.990792	72.454826	410.732720	112.379028	-188.090748	363.990880	-255.785709	183.997862	107.384331	-90.159523	-165.994889	140.765621	44.984819	171.036140	-209.031306	103.140773	-163.923927	115.680674	96.322523	163.184850	-241.369102	148.909698	-164.441130	54.625659	-101.150794	215.734338	-312.141679	-42.933556	-156.808331	825.515417	-128.821994	195.053974	802.719044	-149.699894	-278.432006	576.908891	-124.286862	300.565240	548.082518	-177.783574	-214.952484	448.112019	-316.229748	219.938229	413.828575	-357.848778
1579	15.78000	-1.927812	410.154306	111.000511	18.026256	847.870987	-171.163552	15.019300	942.761772	-310.151973	-76.232638	414.037280	109.707735	72.377108	406.271333	112.293287	-187.947515	362.579755	-256.271428	185.185315	103.904649	-90.171658	-165.191890	140.265628	45.072154	171.961956	-212.043418	103.814552	-163.092805	115.201886	96.414877	164.107033	-244.450045	149.573681	-163.176843	54.457978	-101.133556	217.228071	-314.635350	-42.382177	-156.805044	821.114331	-129.093085	195.443308	798.230938	-149.486400	-278.885602	572.506656	-125.310631	301.199981	543.673447	-178.615065	-214.336088	444.414865	-317.460440	219.960546	410.184570	-359.128633
1580	15.79000	-2.061197	405.745790	110.816113	18.268897	843.372289	-170.988215	15.448024	938.348974	-309.885267	-76.421712	409.681633	109.424677	72.299390	401.809947	112.207545	-187.804282	361.168630	-256.757146	186.372769	100.424966	-90.183792	-164.388892	139.765634	45.159488	172.887773	-215.055531	104.488330	-162.261684	114.723098	96.507232	165.029215	-247.530989	150.237663	-161.912556	54.290298	-101.116318	218.721804	-317.129021	-41.830797	-156.801758	816.713245	-129.364176	195.832643	793.742832	-149.272907	-279.339199	568.104421	-126.334400	301.834723	539.264375	-179.446555	-213.719692	440.717710	-318.691133	219.982862	406.540565	-360.408488
1581	15.80000	-2.194581	401.337273	110.631716	18.511538	838.873591	-170.812879	15.876748	933.936177	-309.618562	-76.610786	405.325986	109.141620	72.221672	397.348560	112.121804	-187.661049	359.757506	-257.242865	187.560223	96.945284	-90.195927	-163.585893	139.265640	45.246822	173.813589	-218.067643	105.162108	-161.430563	114.244310	96.599586	165.951397	-250.611932	150.901646	-160.648269	54.122617	-101.099080	220.215538	-319.622693	-41.279417	-156.798472	812.312159	-129.635267	196.221977	789.254726	-149.059413	-279.792795	563.702186	-127.358170	302.469465	534.855304	-180.278045	-213.103297	437.020556	-319.921825	220.005178	402.896560	-361.688342
